{"title":"Australian Survivor - S03E04","uid":15701495,"size":1078662388,"categoryP":"video","categoryS":"hd___tv_shows","magnet":"?xt=urn:btih:099b27b13d64b1912e6fb77a4d7a0146d7eb657c&amp;dn=Australian+Survivor+-+S03E04&amp;tr=udp%3A%2F%2Ftracker.leechers-paradise.org%3A6969&amp;tr=udp%3A%2F%2Fzer0day.ch%3A1337&amp;tr=udp%3A%2F%2Fopen.demonii.com%3A1337&amp;tr=udp%3A%2F%2Ftracker.coppersurfer.tk%3A6969&amp;tr=udp%3A%2F%2Fexodus.desync.com%3A6969","seeders":51,"leechers":14,"uploader":"riseagainstMPAA1","files":1,"time":1472482478,"description":"Australian Survivor - S03E04\r\n\r\nAustralian Survivor - S03E04.avi\r\nFormat : AVI\r\nFormat/Info : Audio Video Interleave\r\nFile size : 1.00 GiB\r\nDuration : 56 min\r\nOverall bit rate : 2 557 kb/s\r\nWriting library : VirtualDub build 35491/release\r\n\r\nVideo\r\nID : 0\r\nFormat : MPEG-4 Visual\r\nFormat profile : Advanced   \r\nFormat settings, BVOP : 2\r\nFormat settings, QPel : No\r\nFormat settings, GMC : No warppoints\r\nFormat settings, Matrix : Default (H.263)\r\nMuxing mode : Packed bitstream\r\nCodec ID : XVID\r\nCodec ID/Hint : XviD\r\nDuration : 56 min\r\nBit rate : 2 452 kb/s\r\nWidth : 1 024 pixels\r\nHeight : 576 pixels\r\nDisplay aspect ratio : 16:9\r\nFrame rate : 25.000 FPS\r\nColor space : YUV\r\nChroma subsampling : 4:2:0\r\nBit depth : 8 bits\r\nScan type : Progressive\r\nCompression mode : Lossy\r\nBits/(Pixel*Frame) : 0.166\r\nStream size : 986 MiB (96%)\r\nWriting library : XviD 73\r\n\r\nAudio\r\nID : 1\r\nFormat : AC-3\r\nFormat/Info : Audio Coding 3\r\nMode extension : CM (complete main)\r\nFormat settings, Endianness : Big\r\nCodec ID : 2000\r\nDuration : 56 min\r\nBit rate mode : Constant\r\nBit rate : 96.0 kb/s\r\nChannel(s) : 2 channels\r\nChannel positions : Front: L R\r\nSampling rate : 44.1 kHz\r\nFrame rate : 28.711 FPS (1536 spf)\r\nCompression mode : Lossy\r\nStream size : 38.4 MiB (4%)\r\nAlignment : Aligned on interleaves\r\nInterleave, duration : 40 ms (1.00 video frame)\r\nInterleave, preload duration : 522 ms","torrent":{"xt":"urn:btih:099b27b13d64b1912e6fb77a4d7a0146d7eb657c","amp;dn":"Australian+Survivor+-+S03E04","amp;tr":["udp%3A%2F%2Ftracker.leechers-paradise.org%3A6969","udp%3A%2F%2Fzer0day.ch%3A1337","udp%3A%2F%2Fopen.demonii.com%3A1337","udp%3A%2F%2Ftracker.coppersurfer.tk%3A6969","udp%3A%2F%2Fexodus.desync.com%3A6969"],"infoHash":"099b27b13d64b1912e6fb77a4d7a0146d7eb657c","infoHashBuffer":{"type":"Buffer","data":[9,155,39,177,61,100,177,145,46,111,183,122,77,122,1,70,215,235,101,124]},"announce":[],"urlList":[]}}